<svg width="62" height="64" viewBox="0 0 62 64" fill="none" xmlns="http://www.w3.org/2000/svg">
<path d="M54.3473 22.0396C54.0748 21.5165 53.43 21.3133 52.9068 21.5856L52.9067 21.5858L48.0158 24.1284H48.0083L30.6797 33.1456L36.5531 14.5398C36.5531 14.5324 36.5616 14.527 36.5637 14.5185L38.219 9.24314C38.3945 8.68089 38.0815 8.08261 37.5195 7.90614C22.4317 3.04178 6.25702 11.3294 1.39252 26.4173C-3.47198 41.5052 4.81577 57.6797 19.9036 62.5442C20.0191 62.5814 20.1347 62.6179 20.2507 62.6536C23.0584 63.5435 25.986 63.9976 28.9315 64.0003C41.4404 63.9651 52.4922 55.8489 56.2695 43.924C58.5814 36.6657 57.8892 28.7837 54.3473 22.0396ZM27.8679 34.9621C27.6913 35.5248 28.0042 36.1242 28.5669 36.3009C28.8364 36.3855 29.1283 36.3599 29.379 36.2297L47.9955 26.544C48.0777 26.7223 48.1653 26.8985 48.2422 27.0779C48.3489 27.3363 48.4557 27.5958 48.5625 27.8585C48.7003 28.2184 48.8242 28.5815 48.9406 28.9467C49.0292 29.2244 49.1157 29.5031 49.1926 29.7829C49.2898 30.1406 49.373 30.5016 49.451 30.8636C49.514 31.154 49.5781 31.4434 49.6283 31.735C49.6902 32.097 49.7351 32.4601 49.7778 32.8242C49.813 33.1179 49.8515 33.4105 49.8739 33.7052C49.9017 34.0779 49.9081 34.4527 49.9155 34.8254C49.9219 35.1127 49.9358 35.3989 49.9294 35.6861C49.9219 36.0823 49.8878 36.4785 49.8579 36.8747C49.8365 37.1395 49.8269 37.4087 49.797 37.6692C49.7436 38.122 49.6614 38.5726 49.5834 39.0233C49.546 39.2305 49.5226 39.4387 49.4766 39.6448C49.3357 40.3037 49.1659 40.9604 48.9598 41.6119C47.2927 46.9423 43.5628 51.3846 38.6013 53.9492C38.1634 54.1777 37.7138 54.3688 37.2653 54.5643C26.6229 59.2053 14.2331 54.3403 9.59206 43.6978C5.54261 34.412 8.69155 23.5588 17.0822 17.8823C17.7562 17.4218 18.4561 17.0003 19.1785 16.6201C19.7445 16.3253 20.3222 16.0659 20.9042 15.8256C21.0057 15.7829 21.1071 15.7401 21.2096 15.6996C21.7792 15.4768 22.3516 15.2784 22.9268 15.1048C23.025 15.0749 23.1254 15.0503 23.2247 15.0225C23.7886 14.8634 24.3556 14.7246 24.928 14.6146C24.9729 14.606 25.0177 14.5943 25.0636 14.5858C25.6617 14.479 26.265 14.3957 26.8705 14.3369L27.2229 14.3049C27.8209 14.2579 28.4211 14.2323 29.0223 14.2376C29.1152 14.2376 29.207 14.244 29.2989 14.2462C29.8382 14.2568 30.3785 14.291 30.9178 14.3444C31.0417 14.3562 31.1645 14.3658 31.2884 14.3797C31.8842 14.4508 32.4795 14.5462 33.0739 14.6658C33.1988 14.6915 33.3238 14.7235 33.4487 14.7513C33.6954 14.8068 33.941 14.8805 34.1877 14.9446L27.8679 34.9621ZM54.2266 43.2778C49.8074 57.2727 34.8798 65.0353 20.885 60.6161C14.1693 58.4956 8.56995 53.7958 5.31728 47.5493C-1.47876 34.5575 3.54393 18.5165 16.5356 11.7205C22.4806 8.61068 29.3826 7.86716 35.8536 9.63932L34.837 12.8825C34.617 12.8237 34.3948 12.7896 34.1738 12.7383C33.8534 12.6614 33.5256 12.5888 33.1999 12.5247C32.8016 12.4489 32.4043 12.388 32.0049 12.3336C31.6685 12.2866 31.3332 12.2407 30.9968 12.2097C30.6006 12.1723 30.2066 12.1542 29.8115 12.1371C29.473 12.1232 29.1355 12.1072 28.798 12.1072C28.3997 12.1072 28.0035 12.1307 27.6063 12.1531C27.2731 12.1713 26.9421 12.183 26.611 12.2161C26.2052 12.2556 25.8016 12.3229 25.399 12.3827C25.0786 12.4308 24.7582 12.4703 24.4443 12.5322C24.0257 12.6155 23.6113 12.7255 23.1959 12.8312C22.9001 12.907 22.6022 12.97 22.3085 13.0576C21.8653 13.19 21.4286 13.3534 20.9907 13.5136C20.7323 13.6076 20.4707 13.6855 20.2154 13.7902C19.6815 14.0038 19.1636 14.2558 18.6446 14.5121C18.494 14.5868 18.3381 14.6445 18.1886 14.7257C17.5681 15.046 16.9733 15.4038 16.3913 15.7743C6.30147 22.2216 2.79346 35.2992 8.30202 45.9304C8.31057 45.9475 8.31698 45.9646 8.32553 45.9806C8.34689 46.0212 8.37357 46.0575 8.39386 46.098C11.2249 51.5061 16.089 55.5674 21.9155 57.3878C21.9475 57.3984 21.9796 57.4038 22.0106 57.4134C22.6427 57.6099 23.2792 57.7733 23.9189 57.9142C24.1495 57.9655 24.3813 58.005 24.613 58.0498C25.0668 58.1353 25.5218 58.21 25.9778 58.2634C26.2319 58.2955 26.485 58.3264 26.7392 58.351C27.2144 58.3958 27.6896 58.4225 28.1648 58.4375C28.3784 58.445 28.5919 58.461 28.797 58.4621C28.8354 58.4621 28.8739 58.4621 28.9123 58.4621C29.4954 58.4621 30.0774 58.4322 30.6572 58.3873C30.8334 58.3734 31.0086 58.3574 31.1837 58.3392C31.8116 58.2773 32.4374 58.1961 33.0579 58.0819C33.1646 58.0627 33.2714 58.036 33.3782 58.0146C33.9421 57.9078 34.5016 57.7669 35.058 57.612C35.2043 57.5714 35.3506 57.5341 35.4958 57.4903C36.1109 57.3066 36.7186 57.0941 37.3209 56.8581C37.4554 56.8047 37.5878 56.7513 37.7213 56.6936C38.3514 56.432 38.9761 56.1522 39.588 55.8393C45.0488 53.0153 49.1535 48.1246 50.9877 42.2569C51.0197 42.1565 51.0379 42.054 51.0678 41.9536C51.2547 41.3353 51.4234 40.7159 51.5569 40.0912C51.6092 39.8456 51.638 39.5989 51.6818 39.3522C51.7694 38.8674 51.8591 38.3836 51.9157 37.8967C51.9477 37.619 51.9563 37.3414 51.9787 37.0627C52.0139 36.6067 52.0524 36.1517 52.0609 35.6968C52.0673 35.4021 52.0513 35.1084 52.046 34.8137C52.0374 34.3769 52.03 33.9402 51.9958 33.5045C51.9723 33.198 51.9296 32.8936 51.8943 32.5882C51.8441 32.1685 51.7939 31.751 51.7224 31.3345C51.6669 31.0141 51.5953 30.7045 51.527 30.3894C51.4394 29.9911 51.3497 29.5939 51.2419 29.1987C51.1522 28.8784 51.0486 28.5516 50.945 28.2291C50.8243 27.8553 50.6994 27.4816 50.5595 27.1142C50.4324 26.7789 50.2925 26.4468 50.1494 26.1157C50.0672 25.9267 50.0031 25.7334 49.9155 25.5455L52.928 23.9778C55.7927 30.0138 56.2569 36.9126 54.2266 43.2778Z" fill="#069C54"/>
<path d="M60.9372 14.2525C57.4738 7.45096 51.4165 2.33124 44.1329 0.0495617C43.5705 -0.127441 42.9712 0.184649 42.7938 0.746892L41.1161 6.06604L34.3959 27.3661C34.2659 27.7789 34.3979 28.2292 34.7302 28.5066C35.0625 28.784 35.5293 28.8334 35.9123 28.6316L55.5721 18.273L60.4844 15.6834C61.0017 15.4108 61.2035 14.773 60.9372 14.2525ZM43.4238 10.6003C44.3085 10.6003 45.0257 11.3175 45.0257 12.2021C45.0257 13.0867 44.3085 13.8039 43.4238 13.8039C42.5392 13.8039 41.822 13.0867 41.822 12.2021C41.822 11.3175 42.5392 10.6003 43.4238 10.6003ZM37.2151 25.5315L38.644 21.0004C38.7219 22.176 39.3517 23.2454 40.3419 23.8837L37.2151 25.5315ZM42.356 22.347C41.4713 22.347 40.7541 21.6298 40.7541 20.7452C40.7541 19.8606 41.4713 19.1434 42.356 19.1434C43.2406 19.1434 43.9578 19.8606 43.9578 20.7452C43.9578 21.63 43.2406 22.347 42.356 22.347ZM46.0946 20.8584C46.0946 20.8189 46.1064 20.7826 46.1064 20.7431C46.1157 18.6877 44.457 17.014 42.4017 17.0047C41.2624 16.9995 40.1835 17.5165 39.4737 18.4076L40.6409 14.6721C42.0015 16.2299 44.3673 16.3898 45.9252 15.0293C47.483 13.6687 47.6429 11.3029 46.2824 9.74505C45.3615 8.69064 43.9294 8.23786 42.5697 8.57131L42.8217 7.77573C43.0032 7.84301 43.188 7.90494 43.3674 7.97756C43.613 8.07687 43.8575 8.17726 44.0978 8.28511C44.4652 8.44957 44.824 8.6279 45.1796 8.81265C45.4017 8.92798 45.627 9.04011 45.8449 9.16398C46.2229 9.37756 46.5924 9.61036 46.9523 9.84743C47.1295 9.96276 47.3122 10.0695 47.4862 10.1913C47.9995 10.5473 48.4979 10.927 48.9813 11.3307L49.0218 11.3617C49.5131 11.7771 49.9829 12.216 50.4325 12.6805C50.5767 12.8279 50.7102 12.9881 50.8511 13.1397C51.1491 13.4601 51.4427 13.7901 51.7215 14.1328C51.8774 14.3251 52.0237 14.5258 52.1732 14.7245C52.4177 15.0448 52.6559 15.3759 52.8823 15.7144C53.0275 15.928 53.1674 16.1554 53.3094 16.3797C53.4162 16.5495 53.5091 16.7267 53.6095 16.8997L46.0946 20.8584ZM55.5102 15.8938C55.3927 15.6877 55.256 15.4965 55.1322 15.2947C54.9773 15.0416 54.8214 14.7885 54.657 14.5472C54.4103 14.1766 54.1486 13.8189 53.8817 13.4654C53.714 13.2422 53.5506 13.0148 53.3744 12.7991C53.0701 12.4232 52.7476 12.0665 52.4219 11.7119C52.2628 11.54 52.1132 11.3595 51.9488 11.1919C51.4544 10.6878 50.9418 10.2041 50.4036 9.74812L50.3875 9.73317C49.844 9.27398 49.2759 8.84362 48.6907 8.43675C48.4995 8.30433 48.2977 8.18793 48.1033 8.06086C47.6997 7.79709 47.2928 7.53866 46.8721 7.30052C46.6307 7.1649 46.3819 7.04316 46.1352 6.91501C45.7412 6.71105 45.345 6.51349 44.9381 6.33088C44.6701 6.21234 44.3988 6.10235 44.1254 5.99342C43.9044 5.90479 43.6919 5.8012 43.4676 5.71898L44.5056 2.42241C50.4635 4.55778 55.4481 8.77594 58.5398 14.2984L55.5102 15.8938Z" fill="#069C54"/>
<path d="M24.2019 17.0078C22.1376 17.0078 20.4643 18.6811 20.4643 20.7454C20.4643 22.8096 22.1376 24.483 24.2019 24.483C26.2661 24.483 27.9395 22.8096 27.9395 20.7454C27.9395 18.6811 26.2661 17.0078 24.2019 17.0078ZM24.2019 22.3472C23.3172 22.3472 22.6 21.63 22.6 20.7454C22.6 19.8608 23.3172 19.1435 24.2019 19.1435C25.0865 19.1435 25.8037 19.8608 25.8037 20.7454C25.8037 21.6301 25.0865 22.3472 24.2019 22.3472Z" fill="#069C54"/>
<path d="M13.523 26.6187C11.4588 26.6187 9.78535 28.2921 9.78535 30.3563C9.78535 32.4206 11.4588 34.094 13.523 34.094C15.5872 34.094 17.2606 32.4206 17.2606 30.3563C17.2606 28.2921 15.5872 26.6187 13.523 26.6187ZM13.523 31.9582C12.6384 31.9582 11.9211 31.241 11.9211 30.3563C11.9211 29.4717 12.6384 28.7545 13.523 28.7545C14.4076 28.7545 15.1248 29.4717 15.1248 30.3563C15.1248 31.2411 14.4076 31.9582 13.523 31.9582Z" fill="#069C54"/>
<path d="M24.2019 26.6187C22.1376 26.6187 20.4643 28.2921 20.4643 30.3563C20.4643 32.4206 22.1376 34.094 24.2019 34.094C26.2661 34.094 27.9395 32.4206 27.9395 30.3563C27.9395 28.2921 26.2661 26.6187 24.2019 26.6187ZM24.2019 31.9582C23.3172 31.9582 22.6 31.241 22.6 30.3563C22.6 29.4717 23.3172 28.7545 24.2019 28.7545C25.0865 28.7545 25.8037 29.4717 25.8037 30.3563C25.8037 31.2411 25.0865 31.9582 24.2019 31.9582Z" fill="#069C54"/>
<path d="M34.8807 45.8408C32.8165 45.8408 31.1431 47.5142 31.1431 49.5784C31.1431 51.6426 32.8165 53.316 34.8807 53.316C36.945 53.316 38.6184 51.6426 38.6184 49.5784C38.6184 47.5142 36.945 45.8408 34.8807 45.8408ZM34.8807 51.1802C33.9961 51.1802 33.2789 50.463 33.2789 49.5784C33.2789 48.6938 33.9961 47.9766 34.8807 47.9766C35.7654 47.9766 36.4826 48.6938 36.4826 49.5784C36.4826 50.4631 35.7654 51.1802 34.8807 51.1802Z" fill="#069C54"/>
<path d="M42.356 38.3655C40.2917 38.3655 38.6183 40.0388 38.6183 42.1031C38.6183 44.1673 40.2917 45.8407 42.356 45.8407C44.4202 45.8407 46.0936 44.1673 46.0936 42.1031C46.0936 40.0388 44.4202 38.3655 42.356 38.3655ZM42.356 43.7049C41.4713 43.7049 40.7541 42.9877 40.7541 42.1031C40.7541 41.2185 41.4713 40.5012 42.356 40.5012C43.2406 40.5012 43.9578 41.2185 43.9578 42.1031C43.9578 42.9878 43.2406 43.7049 42.356 43.7049Z" fill="#069C54"/>
<path d="M45.5596 29.8225C43.4954 29.8225 41.822 31.4958 41.822 33.5601C41.822 35.6243 43.4954 37.2977 45.5596 37.2977C47.6239 37.2977 49.2972 35.6243 49.2972 33.5601C49.2972 31.4958 47.6239 29.8225 45.5596 29.8225ZM45.5596 35.1619C44.675 35.1619 43.9578 34.4447 43.9578 33.5601C43.9578 32.6755 44.675 31.9582 45.5596 31.9582C46.4442 31.9582 47.1615 32.6755 47.1615 33.5601C47.1615 34.4448 46.4442 35.1619 45.5596 35.1619Z" fill="#069C54"/>
<path d="M14.5909 37.2976C12.5266 37.2976 10.8533 38.971 10.8533 41.0352C10.8533 43.0994 12.5266 44.7728 14.5909 44.7728C16.6551 44.7728 18.3285 43.0994 18.3285 41.0352C18.3285 38.971 16.6551 37.2976 14.5909 37.2976ZM14.5909 42.637C13.7063 42.637 12.989 41.9198 12.989 41.0352C12.989 40.1506 13.7063 39.4334 14.5909 39.4334C15.4755 39.4334 16.1927 40.1506 16.1927 41.0352C16.1927 41.9199 15.4755 42.637 14.5909 42.637Z" fill="#069C54"/>
<path d="M31.6771 36.2297C29.6129 36.2297 27.9395 37.9031 27.9395 39.9673C27.9395 42.0315 29.6129 43.7049 31.6771 43.7049C33.7413 43.7049 35.4147 42.0315 35.4147 39.9673C35.4147 37.9031 33.7413 36.2297 31.6771 36.2297ZM31.6771 41.5692C30.7925 41.5692 30.0752 40.8519 30.0752 39.9673C30.0752 39.0827 30.7925 38.3655 31.6771 38.3655C32.5617 38.3655 33.2789 39.0827 33.2789 39.9673C33.2789 40.8521 32.5617 41.5692 31.6771 41.5692Z" fill="#069C54"/>
<path d="M22.0661 45.8408C20.0019 45.8408 18.3285 47.5142 18.3285 49.5784C18.3285 51.6426 20.0019 53.316 22.0661 53.316C24.1303 53.316 25.8037 51.6426 25.8037 49.5784C25.8037 47.5142 24.1303 45.8408 22.0661 45.8408ZM22.0661 51.1802C21.1815 51.1802 20.4643 50.463 20.4643 49.5784C20.4643 48.6938 21.1815 47.9766 22.0661 47.9766C22.9507 47.9766 23.6679 48.6938 23.6679 49.5784C23.6679 50.4631 22.9507 51.1802 22.0661 51.1802Z" fill="#069C54"/>
<path d="M16.1927 22.3472C15.603 22.3472 15.1248 22.8254 15.1248 23.4151C15.1248 24.0049 15.603 24.483 16.1927 24.483C16.7824 24.483 17.2606 24.9612 17.2606 25.5509C17.2606 26.1407 17.7387 26.6188 18.3285 26.6188C18.9182 26.6188 19.3964 26.1407 19.3964 25.5509C19.3964 23.7817 17.9621 22.3472 16.1927 22.3472Z" fill="#069C54"/>
<path d="M30.0752 44.7727C28.3059 44.7727 26.8716 46.207 26.8716 47.9764C26.8716 48.5661 27.3497 49.0443 27.9395 49.0443C28.5292 49.0443 29.0074 48.5661 29.0074 47.9764C29.0074 47.3866 29.4855 46.9085 30.0752 46.9085C30.665 46.9085 31.1431 46.4303 31.1431 45.8406C31.1431 45.2509 30.665 44.7727 30.0752 44.7727Z" fill="#069C54"/>
<path d="M32.3408 16.252C31.9235 15.835 31.2473 15.8353 30.8303 16.2526C30.4079 16.6564 29.7426 16.6564 29.3203 16.2526C28.9032 15.8353 28.227 15.835 27.8097 16.252C27.3924 16.6691 27.3922 17.3453 27.8092 17.7626C29.06 19.0141 31.0883 19.0147 32.3399 17.764C32.3404 17.7635 32.3408 17.7631 32.3413 17.7626C32.7583 17.3453 32.7581 16.6691 32.3408 16.252Z" fill="#069C54"/>
<path d="M39.6862 34.094C37.9169 34.094 36.4826 35.5282 36.4826 37.2976C36.4826 37.8873 36.9607 38.3655 37.5505 38.3655C38.1402 38.3655 38.6184 37.8873 38.6184 37.2976C38.6184 36.7079 39.0965 36.2297 39.6862 36.2297C40.276 36.2297 40.7541 35.7516 40.7541 35.1618C40.7541 34.5721 40.276 34.094 39.6862 34.094Z" fill="#069C54"/>
<path d="M23.3565 36.0997C23.356 36.0992 23.3556 36.0988 23.355 36.0982C22.9378 35.6812 22.2615 35.6815 21.8445 36.0988C21.4275 36.516 21.4278 37.1923 21.845 37.6093C22.2619 38.0263 22.2619 38.7023 21.845 39.1193C21.4275 39.5358 21.4266 40.212 21.8432 40.6295C21.8434 40.6298 21.8437 40.6301 21.844 40.6303C22.2607 41.0476 22.937 41.048 23.3542 40.6311C23.3545 40.6309 23.3548 40.6306 23.355 40.6303C24.6066 39.3797 24.6071 37.3513 23.3565 36.0997Z" fill="#069C54"/>
<path d="M49.2972 13.8042C48.7075 13.8042 48.2293 14.2823 48.2293 14.872C48.2293 15.4618 47.7512 15.9399 47.1615 15.9399C46.5717 15.9399 46.0936 16.4181 46.0936 17.0078C46.0936 17.5976 46.5717 18.0757 47.1615 18.0757C48.9308 18.0757 50.3651 16.6414 50.3651 14.872C50.3651 14.2823 49.887 13.8042 49.2972 13.8042Z" fill="#069C54"/>
</svg>
