<svg width="64" height="55" viewBox="0 0 64 55" fill="none" xmlns="http://www.w3.org/2000/svg">
<path d="M19.1978 44.7949C17.4308 44.7949 15.9981 46.2275 15.9981 47.9945C15.9981 49.7615 17.4308 51.1941 19.1978 51.1941C20.9648 51.1941 22.3974 49.7615 22.3974 47.9945C22.3974 46.2275 20.9648 44.7949 19.1978 44.7949ZM19.1978 49.061C18.6088 49.061 18.1312 48.5835 18.1312 47.9945C18.1312 47.4055 18.6088 46.928 19.1978 46.928C19.7868 46.928 20.2643 47.4055 20.2643 47.9945C20.2643 48.5835 19.7868 49.061 19.1978 49.061Z" fill="#069C54"/>
<path d="M50.1275 44.7949C48.3605 44.7949 46.9279 46.2275 46.9279 47.9945C46.9279 49.7615 48.3605 51.1941 50.1275 51.1941C51.8945 51.1941 53.3271 49.7615 53.3271 47.9945C53.3271 46.2275 51.8945 44.7949 50.1275 44.7949ZM50.1275 49.061C49.5385 49.061 49.0609 48.5835 49.0609 47.9945C49.0609 47.4055 49.5385 46.928 50.1275 46.928C50.7165 46.928 51.194 47.4055 51.194 47.9945C51.194 48.5835 50.7165 49.061 50.1275 49.061Z" fill="#069C54"/>
<path d="M3.19962 17.0647H5.3327V19.1977H3.19962V17.0647Z" fill="#069C54"/>
<path d="M0 21.3311H2.13308V23.4642H0V21.3311Z" fill="#069C54"/>
<path d="M52.2606 6.39941H58.6598V8.53241H52.2606V6.39941Z" fill="#069C54"/>
<path d="M47.9944 6.39941H50.1275V8.53241H47.9944V6.39941Z" fill="#069C54"/>
<path d="M34.1294 0H44.7948V2.13309H34.1294V0Z" fill="#069C54"/>
<path d="M29.8632 0H31.9963V2.13309H29.8632V0Z" fill="#069C54"/>
<path d="M63.9925 54.3938V52.2607H54.8842C55.7935 51.254 56.3575 49.9839 56.495 48.6345L63.4593 44.6543C63.5087 44.6199 63.5556 44.5819 63.5988 44.5402C63.6363 44.5147 63.6723 44.4861 63.7056 44.4559C63.7858 44.371 63.8514 44.2731 63.8998 44.1668C63.905 44.1569 63.9123 44.1507 63.917 44.1413C63.9655 44.0205 63.9915 43.8919 63.9936 43.7617C63.9936 43.7497 63.9998 43.7403 63.9998 43.7283V34.1295C63.9951 34.0982 63.9889 34.0675 63.9806 34.0368C63.9821 34.0092 63.9821 33.981 63.9806 33.9534L61.8475 21.1549C61.8428 21.1393 61.8371 21.1232 61.8308 21.1081C61.8308 21.0966 61.8308 21.0836 61.8308 21.0721L60.7643 16.806C60.645 16.33 60.2169 15.9967 59.7264 15.9982H46.7893C46.6446 15.4785 46.3696 15.0036 45.9905 14.6192L38.708 7.33682C38.1096 6.73472 37.2951 6.39732 36.4457 6.39942H10.6654C10.0764 6.39942 9.59888 6.87692 9.59888 7.46592V11.7321H0V13.8652H9.59888V17.0648H7.4658V19.1979H9.59888V21.331H4.26617V23.464H9.59888V33.0629C9.00989 33.0629 8.53234 33.5405 8.53234 34.1295V43.7283C8.53234 43.7507 8.54432 43.77 8.54536 43.7934C8.55161 43.8898 8.57088 43.9851 8.60264 44.0762C8.61254 44.1101 8.62451 44.1434 8.63805 44.1762C8.68805 44.2882 8.75679 44.3902 8.84168 44.4783L12.8178 48.4544C12.9198 49.8682 13.4911 51.2082 14.441 52.2607H0V54.3938H63.9925ZM44.1016 45.8614H25.2236C25.0929 45.4917 24.9278 45.1344 24.731 44.7949H44.5943C44.3974 45.1344 44.2323 45.4917 44.1016 45.8614ZM25.597 47.9945H43.7282C43.7288 49.5709 44.3141 51.091 45.3708 52.2607H23.9545C25.0111 51.091 25.5965 49.5709 25.597 47.9945ZM45.8613 47.9945C45.8613 45.6385 47.7715 43.7283 50.1275 43.7283C52.4835 43.7283 54.3937 45.6385 54.3937 47.9945C54.3937 50.3505 52.4835 52.2607 50.1275 52.2607C47.7715 52.2607 45.8613 50.3505 45.8613 47.9945ZM56.2898 46.2879C56.145 45.7656 55.9336 45.2636 55.6607 44.7949H58.9093L56.2898 46.2879ZM61.6662 33.0629H51.194V22.3975H59.8894L61.6662 33.0629ZM59.4269 20.2644H50.1275C49.5385 20.2644 49.0609 20.742 49.0609 21.331V34.1295C49.0609 34.7185 49.5385 35.196 50.1275 35.196H61.8595V37.3291H58.6598V39.4622H61.8595V42.6618H53.6578C51.519 41.2396 48.736 41.2396 46.5972 42.6618H22.7281C20.5893 41.2396 17.8063 41.2396 15.6674 42.6618H10.6654V38.3956H14.9316V36.2625H10.6654V35.196H45.8613C46.4503 35.196 46.9279 34.7185 46.9279 34.1295V18.1313H58.8937L59.4269 20.2644ZM11.732 23.464H20.2643V21.331H11.732V19.1979H21.3308V17.0648H11.732V13.8652H17.0647V11.7321H11.732V8.53242H36.4457C36.7285 8.53352 36.9993 8.64602 37.1998 8.84492L44.4823 16.1274C44.6828 16.3274 44.7948 16.5992 44.7948 16.8825V33.0629H11.732V23.464ZM13.6646 44.7949C13.4766 45.1188 13.3177 45.4594 13.1901 45.8114L12.1736 44.7949H13.6646ZM14.9316 47.9945C14.9316 45.6385 16.8418 43.7283 19.1978 43.7283C21.5537 43.7283 23.4639 45.6385 23.4639 47.9945C23.4639 50.3505 21.5537 52.2607 19.1978 52.2607C16.8418 52.2607 14.9316 50.3505 14.9316 47.9945Z" fill="#069C54"/>
</svg>
